<?xml version="1.0" encoding="utf-8"?>
<svg width="200px" height="200px" version="1.1" style="shape-rendering:geometricPrecision; text-rendering:geometricPrecision; image-rendering:optimizeQuality; fill-rule:evenodd; clip-rule:evenodd" viewBox="2876.017333984375 4701.44873046875 1914.777587890625 2025.5380859375" xmlns="http://www.w3.org/2000/svg">
  <defs>
    <style type="text/css">
   
    .str0 {stroke:#373435;stroke-width:6.94488}
    .fil2 {fill:#373435}
    .fil1 {fill:#373435;fill-rule:nonzero}
    .fil0 {fill:#D2AE6D;fill-rule:nonzero}
   
  </style>
  </defs>
  <g id="Layer_x0020_1">
    <path class="fil0" d="M 4105.606 4883.209 L 4734.089 5461.782 L 4748.34 5474.994 L 4734.089 5487.541 L 4726.964 5494.146 C 4654.282 5558.213 4537.421 5663.888 4434.098 5668.511 C 4399.182 5670.493 4389.207 5664.55 4388.494 5640.772 C 4387.782 5636.149 4388.494 5630.205 4389.207 5623.602 L 4389.92 5620.296 C 4397.757 5548.965 4397.046 5501.41 4385.644 5471.029 C 4376.381 5444.612 4359.992 5431.399 4335.052 5426.12 C 4297.999 5418.191 4254.531 5431.399 4213.916 5443.949 L 4213.916 5443.949 L 4213.916 5443.949 L 4213.916 5443.949 C 4188.263 5451.877 4163.323 5459.141 4146.934 5459.141 C 4131.971 5459.141 4125.558 5454.518 4125.558 5441.31 C 4125.558 5430.743 4129.833 5426.12 4135.533 5424.136 C 4136.958 5408.943 4139.808 5395.737 4143.371 5383.848 C 4148.36 5367.336 4154.772 5354.788 4161.187 5341.577 C 4170.449 5323.743 4179 5305.912 4185.413 5284.116 C 4191.113 5262.98 4194.676 5236.563 4192.538 5202.217 C 4192.538 5194.953 4191.113 5187.688 4189.688 5181.745 C 4187.551 5175.138 4185.413 5169.854 4182.563 5164.571 C 4176.15 5154.663 4168.311 5146.739 4159.048 5141.452 C 4149.072 5136.172 4137.671 5133.527 4124.133 5132.869 C 4114.869 5132.207 4105.606 5132.869 4095.63 5134.189 C 4084.941 5136.172 4073.541 5139.472 4062.852 5143.436 C 4045.037 5149.38 4026.511 5157.965 4010.122 5167.211 C 3989.457 5178.441 3972.356 5189.667 3963.805 5197.593 C 3953.116 5206.181 3940.29 5213.446 3926.039 5218.729 C 3911.788 5224.014 3896.111 5227.316 3881.86 5227.975 L 3881.86 5227.975 C 3873.309 5227.975 3866.183 5227.975 3859.057 5226.654 C 3851.932 5225.335 3844.806 5223.351 3838.393 5220.71 C 3832.692 5218.069 3827.704 5214.106 3823.43 5210.145 C 3819.867 5205.519 3816.304 5200.896 3814.166 5194.953 C 3809.89 5186.366 3808.466 5175.138 3809.89 5162.588 C 3810.603 5151.362 3812.741 5138.813 3816.304 5124.941 L 3822.005 5115.694 L 4077.815 4883.209 L 4092.067 4870.659 L 4105.606 4883.209 Z" style="fill: rgb(236, 12, 12);"/>
    <path class="fil1" d="M 4422.44 5710.816 C 4408.321 5711.506 4394.875 5710.816 4382.101 5707.367 C 4335.04 5696.33 4307.475 5665.289 4322.266 5599.756 C 4347.813 5490.768 4345.796 5456.966 4333.022 5453.518 C 4318.904 5450.068 4288.65 5460.415 4259.74 5470.763 C 4229.486 5480.419 4200.577 5490.077 4173.685 5490.768 C 4121.917 5490.768 4087.628 5467.314 4087.628 5394.193 C 4086.956 5330.041 4103.092 5294.861 4119.227 5258.991 C 4132.001 5230.708 4144.775 5201.737 4142.086 5149.312 L 4142.086 5149.312 C 4136.035 5150.001 4128.64 5152.761 4119.899 5155.52 C 4090.318 5167.246 4062.081 5186.562 4050.651 5196.908 C 4018.38 5227.261 3970.646 5246.574 3926.274 5248.645 C 3899.381 5250.024 3871.816 5245.194 3848.285 5232.778 C 3826.099 5221.052 3807.947 5203.807 3795.173 5179.663 L 3709.789 5265.199 L 4283.271 5857.745 L 4422.44 5710.816 Z M 4548.162 5579.063 L 4655.732 5465.244 L 4567.6 5375.322 L 4414.372 5218.983 L 4330.333 5132.756 L 4089.646 4885.114 L 3873.833 5101.024 C 3872.489 5113.441 3873.161 5123.788 3876.522 5131.376 C 3879.212 5138.964 3884.59 5144.483 3890.641 5147.933 C 3899.381 5152.07 3910.137 5154.141 3922.24 5153.45 C 3945.771 5152.07 3971.319 5142.413 3987.454 5126.547 C 4004.934 5110.683 4046.617 5081.71 4086.956 5065.845 C 4109.143 5057.566 4132.001 5052.738 4152.842 5054.117 C 4182.424 5055.497 4207.3 5067.914 4222.763 5096.887 C 4230.159 5109.992 4234.192 5125.858 4234.865 5145.172 C 4238.899 5221.052 4221.418 5260.371 4203.938 5299.69 C 4191.837 5325.212 4180.408 5351.425 4180.408 5394.193 C 4180.408 5394.883 4168.306 5394.883 4173.012 5394.883 C 4185.786 5394.883 4207.3 5387.295 4230.159 5379.707 C 4271.842 5365.911 4314.87 5350.735 4355.208 5361.082 C 4415.044 5375.568 4437.231 5429.374 4421.095 5584.581 C 4418.405 5609.414 4416.389 5614.933 4443.282 5613.554 C 4481.604 5611.483 4515.891 5598.377 4548.162 5579.063 Z M 4218.057 5926.036 L 3643.23 5331.421 L 3480.531 5494.906 C 3502.045 5546.642 3520.869 5599.067 3535.66 5653.562 C 3553.139 5719.095 3564.57 5788.075 3564.57 5863.265 L 3564.57 5863.265 C 3564.57 5876.37 3559.191 5889.478 3549.779 5899.135 C 3448.259 5992.948 3382.373 6019.852 3327.244 6041.234 C 3316.487 6046.064 3305.729 6050.202 3296.99 6053.651 C 3295.646 6054.341 3288.922 6057.101 3281.526 6060.549 C 3264.718 6067.447 3241.86 6077.105 3229.758 6086.763 C 3222.363 6092.28 3213.623 6099.868 3204.21 6108.147 C 3118.827 6181.956 3072.438 6259.904 3054.958 6329.575 C 3044.873 6371.653 3045.545 6409.594 3054.958 6441.324 C 3072.438 6477.885 3098.657 6508.235 3138.996 6527.55 C 3169.923 6537.207 3206.9 6537.207 3247.911 6526.86 C 3315.814 6509.615 3391.113 6461.328 3463.722 6374.412 C 3471.792 6364.755 3478.513 6355.788 3484.565 6348.2 C 3493.977 6335.783 3502.717 6312.33 3510.113 6295.084 C 3512.801 6287.497 3515.491 6280.599 3516.163 6279.22 C 3520.197 6269.562 3524.231 6259.214 3528.264 6247.487 C 3549.779 6191.613 3575.327 6123.322 3667.434 6019.852 C 3676.845 6009.503 3688.948 6004.675 3701.72 6004.675 L 3701.72 6004.675 C 3775.676 6004.675 3842.235 6015.711 3906.777 6034.336 C 3959.888 6049.513 4010.313 6068.827 4061.408 6090.901 L 4218.057 5926.036 Z M 4754.563 5498.355 L 4107.798 6178.506 C 4095.024 6194.372 4072.838 6199.892 4054.012 6191.613 C 3995.522 6165.4 3939.719 6142.637 3881.901 6126.081 C 3831.479 6111.596 3779.037 6102.627 3721.891 6100.559 C 3653.315 6181.267 3632.472 6236.451 3615.667 6282.667 C 3610.959 6294.395 3606.925 6305.433 3601.547 6317.158 C 3598.858 6324.057 3597.512 6327.505 3596.168 6330.955 C 3587.427 6353.719 3575.327 6383.38 3557.846 6406.833 C 3549.106 6418.561 3541.039 6428.217 3534.316 6436.495 C 3448.931 6539.967 3355.481 6597.911 3270.096 6619.294 C 3062.354 6673.101 2912.426 6519.273 2964.867 6306.121 C 2986.381 6218.517 3042.856 6123.322 3143.702 6035.026 C 3151.097 6028.128 3161.183 6020.54 3172.612 6011.573 C 3195.469 5993.639 3224.38 5981.222 3246.566 5972.253 C 3249.927 5970.874 3252.617 5969.494 3259.34 5966.045 C 3271.442 5961.217 3282.199 5956.389 3293.628 5952.249 C 3338 5934.315 3392.458 5912.931 3471.118 5842.569 C 3469.101 5784.625 3459.689 5730.82 3445.571 5679.084 C 3430.107 5619.762 3407.25 5561.817 3382.373 5502.494 C 3373.633 5482.489 3379.684 5460.415 3394.475 5447.31 L 4058.047 4783.712 C 4076.199 4765.087 4105.108 4765.777 4123.261 4783.712 L 4123.933 4784.402 L 4123.933 4784.402 L 4428.491 5098.955 C 4431.852 5102.404 4434.542 5105.854 4436.559 5109.992 C 4439.92 5112.062 4443.954 5114.821 4446.643 5117.58 L 4753.89 5430.753 L 4753.89 5430.753 L 4753.89 5431.443 C 4772.042 5449.378 4772.042 5479.73 4754.563 5498.355 Z"/>
    <circle class="fil2 str0" cx="3238.527" cy="6327.128" r="100"/>
    <path class="fil1" d="M3358 6010l-2 -1c-2,-2 1,1 1,2l1 -1z"/>
  </g>
</svg>